<svg xmlns="http://www.w3.org/2000/svg" version="1.1" xmlns:xlink="http://www.w3.org/1999/xlink" xmlns:svgjs="http://svgjs.dev/svgjs" width="2000" height="1500" viewBox="0 0 2000 1500"><rect width="2000" height="1500" fill="#7f1415"></rect><g transform="matrix(0.75,0,0,0.75,249.090909090909,547.1453377475679)"><svg viewBox="0 0 396 107" data-background-color="#7f1415" preserveAspectRatio="xMidYMid meet" height="540" width="2000" xmlns="http://www.w3.org/2000/svg" xmlns:xlink="http://www.w3.org/1999/xlink"><g id="tight-bounds" transform="matrix(1,0,0,1,0.2400000000000091,0.09370089138332105)"><svg viewBox="0 0 395.52 106.81259821723339" height="106.81259821723339" width="395.52"><g><svg viewBox="0 0 395.52 106.81259821723339" height="106.81259821723339" width="395.52"><g><svg viewBox="0 0 395.52 106.81259821723339" height="106.81259821723339" width="395.52"><g id="textblocktransform"><svg viewBox="0 0 395.52 106.81259821723339" height="106.81259821723339" width="395.52" id="textblock"><g><svg viewBox="0 0 395.52 106.81259821723339" height="106.81259821723339" width="395.52"><g transform="matrix(1,0,0,1,0,0)"><svg width="395.52" viewBox="1.15 -35.15 151.43 40.9" height="106.81259821723339" data-palette-color="#ffffff"><path d="M10.75-3.85L10.75-3.85Q10.75 0 5.95 0 1.15 0 1.15-3.85L1.15-3.85Q1.15-7.8 5.95-7.8 10.75-7.8 10.75-3.85ZM32.75-14.5L32.75-14.5Q32.75-7.45 29.65-3.73 26.55 0 21.9 0L21.9 0Q18.65 0 16.05-2.3L16.05-2.3Q14.65-3.5 13.8-5.93 12.95-8.35 12.95-11.7L12.95-11.7Q12.95-16.75 14.85-19.43 16.75-22.1 18.95-22.65L18.95-22.65Q19.75-25.1 22.3-26.1L22.3-26.1Q23.45-26.5 24.85-26.5L24.85-26.5Q32.75-26.5 32.75-14.5ZM20.1-13.6L20.1-13.6Q20.1-6 22.8-6L22.8-6Q25.2-6 25.2-13.15L25.2-13.15Q25.2-16.65 24.07-18.07 22.95-19.5 20.95-19.5L20.95-19.5Q20.1-17.9 20.1-13.6ZM43.05-20.2L43.05-5.9Q43.05-3.45 43.65-2.25L43.65-2.25Q43.34-1.45 41.97-0.73 40.59 0 38.92 0 37.25 0 36.32-1.03 35.4-2.05 35.4-3.8L35.4-3.8 35.4-16.5Q35.4-20.65 34.59-23.4L34.59-23.4 34.3-24.35Q34.5-24.6 34.87-25 35.25-25.4 36.5-26.05 37.75-26.7 39.09-26.7L39.09-26.7Q42.25-26.7 42.9-22.7L42.9-22.7Q43.45-24.25 44.97-25.38 46.5-26.5 49.12-26.5 51.75-26.5 53.55-24.53 55.34-22.55 55.34-19.1L55.34-19.1 55.34-5.6 56.45-3.05Q56.25-2.7 55.9-2.2 55.55-1.7 54.34-0.85 53.15 0 51.8 0L51.8 0Q47.7 0 47.7-5.9L47.7-5.9 47.7-15.55Q47.7-18.3 46.7-19.25 45.7-20.2 43.05-20.2L43.05-20.2ZM59.09-5.9L59.09-5.9 59.09-24.9Q59.09-29.05 58.29-31.8L58.29-31.8 57.99-32.75Q58.19-33 58.57-33.4 58.94-33.8 60.19-34.48 61.44-35.15 62.79-35.15L62.79-35.15Q66.74-35.15 66.74-28.9L66.74-28.9 66.74-5.6 67.84-3.05Q67.64-2.7 67.29-2.2 66.94-1.7 65.74-0.85 64.54 0 63.19 0L63.19 0Q59.09 0 59.09-5.9ZM69.94 3.85L69.94 3.85Q69.69 2.6 69.69 1.7 69.69 0.8 69.94 0.03 70.19-0.75 71.09-1.4 71.99-2.05 73.39-2.05 74.79-2.05 76.54-1.15 78.29-0.25 79.29-0.25L79.29-0.25Q81.64-0.25 81.64-3.2L81.64-3.2 81.64-5.55Q80.34-3.2 77.04-3.2 73.74-3.2 72.02-5 70.29-6.8 70.29-9.45L70.29-9.45 70.29-20.9 69.19-24.35Q69.89-25.25 71.42-25.98 72.94-26.7 74.39-26.7 75.84-26.7 76.89-25.4 77.94-24.1 77.94-22.45L77.94-22.45 77.94-11.15Q77.94-9.4 78.82-8.85 79.69-8.3 81.64-8.25L81.64-8.25 81.64-20.9 80.49-24.35Q81.19-25.25 82.74-25.98 84.29-26.7 85.72-26.7 87.14-26.7 88.22-25.4 89.29-24.1 89.29-22.45L89.29-22.45 89.29-4.95Q89.29 0.3 86.77 3.03 84.24 5.75 79.24 5.75L79.24 5.75Q76.44 5.75 73.97 4.8 71.49 3.85 69.94 3.85ZM108.29-6.95L108.29-6.95Q108.84-6.4 108.84-5.5 108.84-4.6 108.49-3.73 108.14-2.85 107.36-2 106.59-1.15 105.11-0.58 103.64 0 101.76 0 99.89 0 98.29-0.58 96.69-1.15 95.24-2.4L95.24-2.4Q92.09-5.2 92.09-11.58 92.09-17.95 94.26-21.03 96.44-24.1 99.19-24.35L99.19-24.35Q101.44-26.5 103.94-26.5L103.94-26.5Q105.64-26.5 107.29-25.15 108.94-23.8 108.94-22.05 108.94-20.3 107.71-18.7 106.49-17.1 104.54-16.45L104.54-16.45Q102.34-18.8 99.64-19.95L99.64-19.95 99.64-15.25Q99.64-10.5 101.89-8.4L101.89-8.4Q103.59-6.8 106.49-6.8L106.49-6.8Q107.34-6.8 108.29-6.95ZM120.69-14.7L120.69-15.05Q120.69-18.6 116.74-18.6L116.74-18.6Q114.49-18.6 112.04-17.15L112.04-17.15Q111.24-17.95 111.24-19.13 111.24-20.3 111.91-21.55 112.59-22.8 113.71-23.93 114.84-25.05 116.59-25.78 118.34-26.5 120.29-26.5L120.29-26.5Q124.19-26.5 126.29-24.05 128.39-21.6 128.39-17.05L128.39-17.05 128.39-5.6 129.49-3.05Q129.29-2.7 128.94-2.2 128.59-1.7 127.39-0.85 126.19 0 124.89 0L124.89 0Q121.64 0 120.94-3.6L120.94-3.6Q119.29 0 116.36 0 113.44 0 111.91-1.83 110.39-3.65 110.39-6.6L110.39-6.6Q110.39-14.25 120.69-14.7L120.69-14.7ZM116.64-8.45L116.64-8.45Q116.64-6.5 117.99-5.95L117.99-5.95Q118.29-5.8 118.64-5.8L118.64-5.8Q119.64-5.8 120.69-6.95L120.69-6.95 120.69-12.45Q116.64-11.5 116.64-8.45ZM139.18-20.2L139.18-5.9Q139.18-3.45 139.78-2.25L139.78-2.25Q139.48-1.45 138.11-0.73 136.73 0 135.06 0 133.38 0 132.46-1.03 131.53-2.05 131.53-3.8L131.53-3.8 131.53-16.5Q131.53-20.65 130.73-23.4L130.73-23.4 130.43-24.35Q130.63-24.6 131.01-25 131.38-25.4 132.63-26.05 133.88-26.7 135.23-26.7L135.23-26.7Q138.38-26.7 139.03-22.7L139.03-22.7Q139.58-24.25 141.11-25.38 142.63-26.5 145.26-26.5 147.88-26.5 149.68-24.53 151.48-22.55 151.48-19.1L151.48-19.1 151.48-5.6 152.58-3.05Q152.38-2.7 152.03-2.2 151.68-1.7 150.48-0.85 149.28 0 147.93 0L147.93 0Q143.83 0 143.83-5.9L143.83-5.9 143.83-15.55Q143.83-18.3 142.83-19.25 141.83-20.2 139.18-20.2L139.18-20.2Z" opacity="1" transform="matrix(1,0,0,1,0,0)" fill="#ffffff" class="wordmark-text-0" data-fill-palette-color="primary" id="text-0"></path></svg></g></svg></g></svg></g></svg></g></svg></g><defs></defs></svg><rect width="395.52" height="106.81259821723339" fill="none" stroke="none" visibility="hidden"></rect></g></svg></g></svg>